# xmcd
#
# Track frame offsets:
#	150
#	27734
#	46624
#	72257
#	97918
#	117839
#	150327
#	169552
#	194489
#	225249
#	257126
#
# Disc length: 3821 seconds
#
# Revision: 1
# Processed by: cddbd v1.5.2PL0 Copyright (c) Steve Scherf et al.
# Submitted via: audiograbber 1.83.01
#
DISCID=800eeb0b
DTITLE=Lance Lopez - Higher Ground
DYEAR=2007
DGENRE=
TTITLE0=Higher ground
TTITLE1=That`s a fact
TTITLE2=Let me love you
TTITLE3=El Paso sugar
TTITLE4=Type of girl
TTITLE5=Drinkin` my blues
TTITLE6=Every dog has his day
TTITLE7=Thunderbird south
TTITLE8=Hard livin`
TTITLE9=Every time I turn around
TTITLE10=Kool, iron bed
EXTD=
EXTT0=
EXTT1=
EXTT2=
EXTT3=
EXTT4=
EXTT5=
EXTT6=
EXTT7=
EXTT8=
EXTT9=
EXTT10=
PLAYORDER=
